<svg version="1.1" id="Layer_1" xmlns="http://www.w3.org/2000/svg" xmlns:xlink="http://www.w3.org/1999/xlink" x="0px" y="0px"
	 width="100%" viewBox="0 0 2560 569" enable-background="new 0 0 2560 569" xml:space="preserve">
<path fill="#000000" opacity="1.000000" stroke="none" 
	d="
M1553.000000,1.000020 
	C1818.026855,1.000000 2083.053711,1.000000 2348.792969,1.378432 
	C2344.816162,2.832787 2340.146729,4.006093 2335.434082,4.969147 
	C2298.749756,12.466036 2267.193115,28.712612 2242.562988,57.699280 
	C2233.058105,68.885086 2225.556152,81.279671 2220.323730,94.561531 
	C2211.561523,116.803818 2207.618408,140.057724 2209.739014,164.349869 
	C2210.975342,178.508408 2213.802734,192.013504 2219.113037,205.019836 
	C2225.008545,219.458878 2234.725586,231.450821 2245.176514,242.764664 
	C2249.352295,247.285278 2254.383789,251.102646 2259.379639,254.755981 
	C2265.351074,259.122833 2271.701416,262.971313 2278.034180,267.363190 
	C2300.106445,281.854645 2323.643799,292.760559 2348.126221,302.422241 
	C2360.385742,307.495300 2372.504639,312.167114 2384.547607,317.026123 
	C2407.556885,326.309692 2431.119629,334.541077 2451.207520,349.706940 
	C2456.463135,353.674866 2461.015381,358.574615 2466.031006,363.359619 
	C2477.956543,376.930634 2481.683105,393.175720 2482.926514,410.159607 
	C2483.933105,423.909760 2480.968750,437.141907 2476.002441,450.307251 
	C2469.336426,464.457764 2459.756104,475.665100 2446.942383,483.980865 
	C2428.202637,496.142273 2407.092285,500.013336 2385.266357,500.919617 
	C2379.693359,501.150970 2374.029297,500.684265 2368.490723,499.927216 
	C2358.797852,498.602356 2349.065918,497.261841 2339.538330,495.098846 
	C2324.714844,491.733551 2311.594482,484.430634 2298.956299,475.642273 
	C2276.762939,459.341125 2264.014648,436.609528 2253.444336,411.986572 
	C2245.872559,416.415253 2238.699219,420.654541 2231.484619,424.821808 
	C2216.346191,433.565613 2201.156982,442.222626 2186.102539,451.108093 
	C2185.141846,451.675049 2184.369629,454.249756 2184.840820,455.284424 
	C2188.335449,462.958832 2192.167480,470.479767 2195.945312,478.407532 
	C2203.374023,491.738953 2211.613770,504.053864 2223.036377,514.355835 
	C2227.781006,518.938354 2232.209961,523.423706 2237.020020,527.453857 
	C2251.215088,539.346924 2267.180176,548.398132 2284.444336,554.878174 
	C2303.180908,561.910828 2322.462891,567.022644 2342.621338,568.075500 
	C2343.445557,568.118530 2344.208496,569.331909 2345.000000,570.000000 
	C2206.639893,570.000000 2068.279541,570.000000 1929.318970,569.581299 
	C1929.894775,568.771545 1931.046509,568.160889 1932.251465,568.025696 
	C1939.118408,567.255676 1946.080322,567.050720 1952.856934,565.814880 
	C1969.924194,562.702515 1986.765137,558.575928 2002.846436,551.905273 
	C2016.479370,546.250183 2029.591064,539.610474 2041.395508,530.049072 
	C2045.365234,527.240173 2049.318848,524.826172 2052.535889,521.663147 
	C2058.619385,515.682068 2064.279785,509.270599 2070.419434,502.895782 
	C2076.189209,495.181915 2081.655518,487.610260 2087.422607,479.862305 
	C2088.664551,477.784943 2089.638916,475.899414 2090.541260,473.979919 
	C2093.984131,466.656219 2097.404297,459.321594 2100.995361,451.662659 
	C2108.526367,435.693604 2113.010010,419.173950 2116.500244,402.046448 
	C2118.615967,387.222382 2120.698242,372.617157 2121.975098,357.941833 
	C2123.072510,345.331604 2123.250488,332.641327 2123.898438,319.522522 
	C2123.962158,219.848495 2123.962158,120.638412 2123.962158,21.279919 
	C2099.122070,21.279919 2074.744141,21.279919 2049.998779,21.279919 
	C2049.998779,23.349436 2049.998779,25.151379 2049.998779,26.953320 
	C2050.001221,116.723061 2050.024658,206.492813 2049.969482,296.262512 
	C2049.964844,304.170715 2049.445312,312.078552 2049.088867,320.447754 
	C2048.672119,328.123932 2048.620850,335.367218 2047.918457,342.546783 
	C2047.012817,351.803040 2045.808594,361.044373 2044.321899,370.225586 
	C2042.764404,379.845001 2040.719849,389.385620 2038.563843,399.158569 
	C2037.822876,400.918610 2037.441040,402.491028 2036.984375,404.041443 
	C2031.962036,421.095184 2025.280396,437.386597 2014.612915,452.143738 
	C2007.449463,462.411743 1998.589966,470.538544 1988.632324,478.040405 
	C1971.895874,489.153717 1953.836670,495.665131 1934.269775,498.055878 
	C1925.518799,499.125122 1916.760254,500.132538 1907.631836,501.100037 
	C1906.504272,501.077423 1905.749878,501.122742 1904.549805,501.102386 
	C1901.404419,501.080475 1898.704712,501.124268 1895.607666,501.099579 
	C1894.138672,501.076752 1893.067017,501.122375 1891.572266,501.099182 
	C1882.522705,500.022461 1873.873169,499.179688 1865.275635,497.967651 
	C1852.611816,496.182404 1840.413208,492.682587 1828.759521,487.345581 
	C1812.976196,480.117340 1800.051758,469.293823 1788.957764,455.640564 
	C1774.117432,435.106445 1766.011597,412.154358 1760.880615,387.584534 
	C1758.620117,371.035736 1756.019775,354.923431 1754.117432,338.729095 
	C1753.078735,329.887543 1753.222412,320.907135 1752.899658,311.554932 
	C1752.644775,298.404022 1752.057251,285.687805 1752.044189,272.971039 
	C1751.959839,191.007660 1752.001099,109.044159 1752.001099,27.080704 
	C1752.001099,25.149515 1752.001099,23.218327 1752.001099,21.337463 
	C1726.980103,21.337463 1702.595093,21.337463 1678.000244,21.337463 
	C1678.000244,22.992666 1678.000122,24.310068 1678.000122,25.627470 
	C1678.001953,120.085358 1678.003296,214.543243 1678.011963,309.001129 
	C1678.012085,310.330872 1678.106323,311.660583 1678.082520,313.431213 
	C1678.049561,316.255219 1678.090820,318.638306 1678.078247,321.260498 
	C1678.024414,321.499603 1678.189819,321.961060 1678.300293,322.366882 
	C1678.573730,323.056335 1678.867310,323.333893 1678.880859,323.624573 
	C1679.605225,339.096252 1680.120605,354.580841 1681.102295,370.035858 
	C1681.486084,376.077209 1682.911987,382.052338 1683.913818,388.486633 
	C1685.643555,397.669830 1686.570312,406.654999 1689.171021,415.126312 
	C1693.513550,429.272186 1698.926392,443.089508 1703.940308,457.416077 
	C1706.687744,463.311890 1708.797974,469.231903 1712.202759,474.278473 
	C1719.078979,484.470184 1726.658447,494.187439 1733.978882,504.446350 
	C1742.133789,514.541870 1751.311157,523.128479 1762.096069,530.411316 
	C1767.024902,533.837463 1771.682983,537.168518 1776.612671,540.031982 
	C1792.659058,549.352661 1809.645386,556.742126 1827.717041,560.770996 
	C1842.651978,564.100586 1857.984131,565.641418 1873.123291,568.080322 
	C1873.833496,568.194702 1874.378174,569.336670 1875.000000,570.000000 
	C1517.639771,570.000000 1160.279663,570.000000 802.328979,569.578003 
	C802.912048,568.766968 804.058411,568.197998 805.263123,568.016357 
	C818.344727,566.043884 831.525635,564.600464 844.504089,562.102051 
	C868.132202,557.553528 890.300049,548.803040 910.906494,536.425476 
	C918.976135,531.578369 926.354736,525.580811 934.398193,520.053467 
	C937.554199,517.775024 940.572876,515.769104 943.126587,513.285156 
	C951.157837,505.473602 959.453796,497.867157 966.819580,489.456482 
	C974.740234,480.412323 981.724548,470.548096 989.413330,460.868469 
	C997.612915,447.173950 1005.651917,433.729248 1013.368530,420.101959 
	C1017.821411,412.238190 1016.778625,413.674133 1009.825012,409.922455 
	C1000.353699,404.812408 991.025574,399.437317 981.568970,394.299408 
	C970.863831,388.483246 960.084534,382.803833 949.246399,377.016327 
	C944.353210,386.232208 939.826233,395.092194 934.995728,403.783569 
	C926.128540,419.737732 915.575256,434.488129 902.852539,447.628540 
	C897.883789,452.760437 892.872681,457.851257 887.569031,463.096985 
	C880.456116,468.041809 873.783813,473.046082 866.830566,477.623566 
	C842.870972,493.396637 816.069031,500.925507 787.817139,502.745453 
	C774.723633,503.588928 761.421204,502.055328 748.270325,500.933044 
	C729.971558,499.371429 712.851318,493.430359 696.573120,485.129303 
	C689.919189,481.736053 683.591858,477.702484 676.963867,473.651367 
	C676.223389,472.756897 675.706604,472.068909 675.036194,471.600800 
	C660.182251,461.229095 648.197327,448.046417 638.130798,433.144501 
	C632.411743,424.678314 627.435242,415.710480 622.064392,406.588531 
	C617.064819,392.273407 611.484192,378.523651 607.385254,364.345551 
	C604.014709,352.687012 602.180054,340.558777 600.093689,328.564026 
	C598.791260,321.076019 598.285095,313.449463 597.236572,305.458496 
	C597.051575,298.822388 597.051575,292.612793 597.051575,285.948975 
	C735.111877,285.948975 873.825989,285.948975 1012.991943,285.948975 
	C1012.991943,284.057587 1012.974792,282.601746 1012.994568,281.146393 
	C1013.326904,256.693085 1012.934937,232.264648 1007.946472,208.208786 
	C1004.819580,193.129852 1002.233215,177.779816 997.267883,163.283173 
	C991.628662,146.818649 983.946106,131.009369 976.472412,115.237190 
	C972.887085,107.670853 968.209595,100.494476 963.198364,93.757637 
	C952.491760,79.364006 940.914185,65.656944 926.815735,54.378784 
	C919.702026,48.688110 912.643555,42.799572 904.925720,38.026302 
	C895.734253,32.341648 886.112122,27.186659 876.216614,22.852385 
	C865.727722,18.258259 854.854675,14.369605 843.868408,11.124095 
	C828.350220,6.539802 812.470520,3.466433 796.198303,2.909612 
	C795.444641,2.883822 794.731812,1.663840 794.000000,1.000018 
	C892.026855,1.000000 990.053711,1.000000 1088.786133,1.301116 
	C1071.135254,20.290966 1052.778809,38.979702 1034.380249,57.711365 
	C1035.762695,59.176956 1036.427612,59.918755 1037.130981,60.622223 
	C1080.960571,104.462029 1124.792480,148.299530 1168.633057,192.128281 
	C1169.329468,192.824554 1170.136475,193.410217 1171.041260,194.348099 
	C1187.777466,211.135117 1204.364258,227.621506 1221.094116,244.406342 
	C1229.345337,252.818176 1237.332397,261.059692 1245.658813,268.942627 
	C1247.441528,270.630402 1250.434570,271.807648 1252.904541,271.870819 
	C1264.702515,272.172668 1276.512573,272.010071 1288.318237,272.012024 
	C1293.418823,272.012848 1298.519531,272.012177 1303.994507,272.012177 
	C1303.994507,253.361328 1304.060425,235.273422 1303.872437,217.188156 
	C1303.856934,215.705185 1302.341797,214.012650 1301.136353,212.803268 
	C1292.505981,204.144791 1283.775391,195.586395 1274.935425,186.690704 
	C1258.852783,170.594955 1242.911133,154.804672 1226.836792,138.709183 
	C1182.488770,94.095146 1138.267700,49.792088 1094.087769,5.447960 
	C1092.833740,4.189235 1092.019287,2.492532 1091.000000,1.000012 
	C1244.026855,1.000000 1397.053711,1.000000 1550.855835,1.252752 
	C1550.291870,2.976907 1549.010620,4.506290 1547.605103,5.911481 
	C1504.396484,49.109966 1461.173828,92.294357 1417.965332,135.492996 
	C1416.565430,136.892654 1415.291260,138.418137 1413.653076,140.028534 
	C1401.878296,151.731857 1390.408691,163.291672 1378.635132,174.998383 
	C1367.868042,185.701843 1357.404907,196.258392 1346.636475,206.966125 
	C1345.393311,208.055206 1344.554565,209.126846 1343.500488,209.907791 
	C1339.001709,213.241211 1337.679688,217.502090 1337.853027,223.153168 
	C1338.295288,237.586792 1337.996826,252.043091 1337.994751,266.490326 
	C1337.994507,268.241241 1337.994751,269.992157 1337.994751,271.999573 
	C1353.626953,271.999573 1368.585938,271.413605 1383.468750,272.225677 
	C1392.003662,272.691376 1398.132080,270.214630 1402.901245,263.490723 
	C1402.995728,263.357452 1403.045044,263.192139 1403.418701,262.908722 
	C1414.182983,252.196671 1424.644043,241.617599 1435.408447,230.905182 
	C1446.480103,219.874329 1457.248291,208.976822 1468.323853,197.941071 
	C1515.043701,151.067307 1561.456299,104.331810 1608.009155,57.455124 
	C1590.364502,39.832748 1572.911865,22.429113 1555.518555,4.966178 
	C1554.439575,3.882658 1553.828613,2.332876 1553.000000,1.000020 
M1539.358521,451.852448 
	C1529.257202,441.531677 1519.156006,431.210907 1508.772461,420.290100 
	C1470.026978,381.542908 1431.308960,342.768158 1392.446289,304.139008 
	C1390.712646,302.415771 1387.693481,301.234344 1385.221680,301.139496 
	C1376.074219,300.788330 1366.905273,300.999207 1357.744385,300.999084 
	C1349.636475,300.998962 1341.528687,300.999054 1332.999512,300.999054 
	C1332.999512,303.160950 1332.999634,304.792236 1332.999634,306.423553 
	C1332.999634,321.414062 1333.104980,336.405884 1332.922729,351.394165 
	C1332.879150,354.979187 1333.856201,357.504913 1336.445679,360.081848 
	C1374.461670,397.913116 1412.359863,435.862732 1450.295776,473.774506 
	C1451.463867,474.941864 1452.736206,476.005005 1454.223511,477.723389 
	C1464.446777,487.833160 1474.670166,497.942902 1485.178345,508.670227 
	C1489.697266,513.194458 1494.254883,517.680786 1498.725830,522.252014 
	C1505.170044,528.840515 1511.551147,535.490662 1518.231812,542.716492 
	C1526.740234,551.303101 1535.248535,559.889648 1543.169800,567.883728 
	C1562.382324,548.677368 1580.964355,530.101318 1598.968262,512.103149 
	C1591.239624,503.969513 1583.171875,495.479004 1574.806274,486.382050 
	C1570.215698,481.783020 1565.665161,477.143127 1561.025269,472.594391 
	C1554.042603,465.748901 1546.997437,458.967255 1539.358521,451.852448 
M1067.269653,482.204315 
	C1058.448486,491.036652 1049.771362,500.020416 1040.730469,508.621674 
	C1037.434570,511.757294 1037.805420,513.551941 1040.858032,516.518555 
	C1052.558594,527.889221 1064.036011,539.490295 1075.541138,551.060730 
	C1081.263428,556.815430 1086.865112,562.690063 1091.902588,567.873596 
	C1103.011230,557.240356 1113.558350,547.144531 1124.721313,536.796570 
	C1136.495361,524.901794 1148.269409,513.007080 1160.663086,500.842804 
	C1172.129395,489.250397 1183.595703,477.657990 1195.681030,465.808014 
	C1206.073975,455.085297 1216.362427,444.258942 1226.882080,433.662048 
	C1247.418091,412.975281 1268.084717,392.418335 1288.693604,371.803894 
	C1293.753540,366.742615 1300.811523,362.483948 1303.293457,356.371277 
	C1305.852539,350.068207 1303.977905,341.953857 1303.994019,334.631927 
	C1304.018433,323.529114 1304.000366,312.426239 1304.000366,300.999084 
	C1286.867065,300.999084 1270.243408,301.089172 1253.622314,300.927185 
	C1250.071533,300.892548 1247.534790,301.795013 1244.948853,304.396606 
	C1211.131348,338.419373 1177.180054,372.309174 1143.273193,406.243195 
	C1141.756470,407.761108 1140.344727,409.383942 1138.266357,411.202271 
	C1126.829590,422.763855 1115.392944,434.325470 1103.331909,446.146484 
	C1091.516724,458.083649 1079.701660,470.020844 1067.269653,482.204315 
z"/>
<path fill="#000000" opacity="1.000000" stroke="none" 
	d="
M750.000000,570.000000 
	C500.333344,570.000000 250.666656,570.000000 1.000000,570.000000 
	C1.000000,562.588562 1.000000,555.259277 1.468540,547.453613 
	C25.840342,546.977173 49.743603,546.977173 73.976402,546.977173 
	C73.976402,542.972839 73.980270,539.666138 73.975800,536.359375 
	C73.928757,501.565918 73.880371,466.772491 73.891258,431.515015 
	C73.965004,415.604370 74.007149,400.157715 73.988472,384.711090 
	C73.958344,359.801483 73.888130,334.891907 73.896095,309.518372 
	C74.305023,289.638672 74.374954,270.212524 75.099403,250.810852 
	C75.571335,238.171829 76.198608,225.440720 78.195343,212.981476 
	C80.651543,197.655319 83.743431,182.311005 88.190186,167.462585 
	C91.631622,155.971039 96.686096,144.716949 102.669472,134.302979 
	C108.384857,124.355453 115.445877,114.890678 123.333557,106.555756 
	C133.005356,96.335564 145.029663,88.888466 157.936066,82.949730 
	C179.631561,72.966797 202.700867,69.301369 226.207626,68.114853 
	C244.325012,67.200371 262.364746,68.677818 280.081512,72.998260 
	C312.611023,80.930962 337.036804,99.172958 352.091187,129.418594 
	C365.287994,155.932129 368.864807,184.580643 369.830536,213.558456 
	C370.689880,239.343887 370.110535,265.177277 370.091064,291.453552 
	C370.066040,319.606689 370.116089,347.295715 370.089478,375.448853 
	C370.063721,406.936310 370.114685,437.959747 370.090546,469.447662 
	C370.015472,495.470184 370.015472,521.028198 370.015472,546.628113 
	C395.323853,546.628113 420.002350,546.628113 444.833832,546.628113 
	C444.833832,520.174194 444.833832,494.078583 444.893555,467.518829 
	C444.913452,435.698364 444.873657,404.342041 444.895020,372.521545 
	C444.915344,344.701385 444.874481,317.345428 444.898773,289.525543 
	C444.047821,243.114563 447.604034,197.061447 441.910431,151.236298 
	C440.896667,143.076874 439.216278,134.916855 436.935333,127.019463 
	C434.104553,117.218407 430.748627,107.517357 426.864685,98.083908 
	C420.565582,82.784531 411.233826,69.244286 400.304474,56.922920 
	C390.013733,45.321518 377.939545,35.746521 364.473297,27.973398 
	C348.779327,18.914354 332.139221,12.015397 314.491821,8.143553 
	C302.760345,5.569662 290.663330,4.670869 278.746918,2.907441 
	C278.085022,2.809489 277.578735,1.660030 277.000000,1.000001 
	C434.689972,1.000000 592.379944,1.000000 750.756470,1.400868 
	C746.994324,2.531277 742.570618,3.601665 738.092590,3.929528 
	C721.442627,5.148581 705.235779,8.938490 689.672302,14.436541 
	C674.610840,19.757236 660.098755,26.795008 645.719177,33.841377 
	C629.162048,41.954754 614.916443,53.580399 601.567383,66.135460 
	C594.165039,73.097488 587.030273,80.575218 581.026672,88.740868 
	C571.132568,102.197998 561.329468,115.881317 553.153137,130.406586 
	C539.288818,155.036789 529.929321,181.599609 524.937073,209.455322 
	C521.667236,227.700851 518.809326,246.095261 517.250549,264.548309 
	C516.036072,278.926758 517.108948,293.498474 517.088013,308.425720 
	C517.348694,314.444733 517.329468,320.071960 518.096558,325.589813 
	C519.861084,338.282776 521.244873,351.103699 524.196411,363.537262 
	C527.756470,378.534576 532.778503,393.184875 537.108154,408.247406 
	C537.087646,408.684296 537.126709,408.859161 537.156067,409.290894 
	C537.420349,409.740509 537.694397,409.933197 537.990356,410.499878 
	C544.002808,423.527954 549.445740,436.482300 556.163391,448.737946 
	C561.223511,457.969696 567.917053,466.306122 574.028198,475.355774 
	C578.473633,480.971558 582.285767,486.782806 587.176636,491.468018 
	C597.467163,501.326019 608.323669,510.593231 619.093872,520.413208 
	C620.307678,521.464539 621.388306,522.187744 622.441406,522.949219 
	C641.249146,536.548584 661.665710,547.164001 683.562683,554.701599 
	C704.308777,561.842957 725.603333,566.800720 747.629578,568.076416 
	C748.454041,568.124146 749.211365,569.332520 750.000000,570.000000 
z"/>
<path fill="#A59E9D" opacity="1.000000" stroke="none" 
	d="
M517.165283,307.984283 
	C517.108948,293.498474 516.036072,278.926758 517.250549,264.548309 
	C518.809326,246.095261 521.667236,227.700851 524.937073,209.455322 
	C529.929321,181.599609 539.288818,155.036789 553.153137,130.406586 
	C561.329468,115.881317 571.132568,102.197998 581.026672,88.740868 
	C587.030273,80.575218 594.165039,73.097488 601.567383,66.135460 
	C614.916443,53.580399 629.162048,41.954754 645.719177,33.841377 
	C660.098755,26.795008 674.610840,19.757236 689.672302,14.436541 
	C705.235779,8.938490 721.442627,5.148581 738.092590,3.929528 
	C742.570618,3.601665 746.994324,2.531277 751.221436,1.400868 
	C765.020874,1.000000 779.041809,1.000000 793.531311,1.000018 
	C794.731812,1.663840 795.444641,2.883822 796.198303,2.909612 
	C812.470520,3.466433 828.350220,6.539802 843.868408,11.124095 
	C854.854675,14.369605 865.727722,18.258259 876.216614,22.852385 
	C886.112122,27.186659 895.734253,32.341648 904.925720,38.026302 
	C912.643555,42.799572 919.702026,48.688110 926.815735,54.378784 
	C940.914185,65.656944 952.491760,79.364006 963.198364,93.757637 
	C968.209595,100.494476 972.887085,107.670853 976.472412,115.237190 
	C983.946106,131.009369 991.628662,146.818649 997.267883,163.283173 
	C1002.233215,177.779816 1004.819580,193.129852 1007.946472,208.208786 
	C1012.934937,232.264648 1013.326904,256.693085 1012.994568,281.146393 
	C1012.974792,282.601746 1012.991943,284.057587 1012.991943,285.948975 
	C873.825989,285.948975 735.111877,285.948975 597.051575,285.948975 
	C597.051575,292.612793 597.051575,298.822388 596.796326,305.538849 
	C594.092590,306.364166 591.644958,306.950623 589.195435,306.958954 
	C567.798950,307.031708 546.401978,306.967560 525.005554,307.044617 
	C522.391052,307.054016 519.778625,307.656586 517.165283,307.984283 
M654.513672,112.992065 
	C622.344360,142.547302 606.358459,179.926849 601.426270,222.732803 
	C709.582275,222.732803 817.681396,222.732803 926.168640,222.732803 
	C925.402466,218.124908 924.390442,213.850281 924.023438,209.520981 
	C922.329224,189.534332 916.344543,170.676498 907.710571,152.835266 
	C902.996277,143.093582 896.416687,134.114700 889.803955,125.459824 
	C874.749207,105.755692 854.528992,92.882896 831.567932,84.368141 
	C815.350708,78.354225 798.494141,75.201431 781.132507,73.748917 
	C765.378479,72.430916 749.761169,72.643211 734.376221,75.296028 
	C722.470459,77.348938 710.743469,81.090233 699.326050,85.169685 
	C682.722534,91.102104 668.128174,100.688332 654.513672,112.992065 
z"/>
<path fill="#A59E9D" opacity="1.000000" stroke="none" 
	d="
M370.166168,290.989502 
	C370.110535,265.177277 370.689880,239.343887 369.830536,213.558456 
	C368.864807,184.580643 365.287994,155.932129 352.091187,129.418594 
	C337.036804,99.172958 312.611023,80.930962 280.081512,72.998260 
	C262.364746,68.677818 244.325012,67.200371 226.207626,68.114853 
	C202.700867,69.301369 179.631561,72.966797 157.936066,82.949730 
	C145.029663,88.888466 133.005356,96.335564 123.333557,106.555756 
	C115.445877,114.890678 108.384857,124.355453 102.669472,134.302979 
	C96.686096,144.716949 91.631622,155.971039 88.190186,167.462585 
	C83.743431,182.311005 80.651543,197.655319 78.195343,212.981476 
	C76.198608,225.440720 75.571335,238.171829 75.099403,250.810852 
	C74.374954,270.212524 74.305023,289.638672 73.479378,309.528687 
	C68.396095,310.335724 63.792225,310.930176 59.185207,310.955658 
	C39.790649,311.062958 20.395153,311.000397 1.000000,311.000000 
	C1.000000,214.645767 1.000000,118.291542 1.468657,21.468212 
	C24.841272,20.999107 47.745232,20.999107 71.268890,20.999107 
	C71.268890,47.273174 71.268890,72.856880 71.268890,98.674973 
	C79.354240,88.346100 86.404266,77.836754 94.984749,68.776878 
	C104.678818,58.541199 114.978806,48.534515 126.394798,40.353157 
	C144.745605,27.201902 164.866730,16.998383 186.865387,10.938033 
	C201.366638,6.943121 215.989685,3.813532 231.047745,2.918902 
	C232.066238,2.858392 233.017487,1.665982 234.000000,1.000002 
	C248.020889,1.000000 262.041779,1.000000 276.531342,1.000001 
	C277.578735,1.660030 278.085022,2.809489 278.746918,2.907441 
	C290.663330,4.670869 302.760345,5.569662 314.491821,8.143553 
	C332.139221,12.015397 348.779327,18.914354 364.473297,27.973398 
	C377.939545,35.746521 390.013733,45.321518 400.304474,56.922920 
	C411.233826,69.244286 420.565582,82.784531 426.864685,98.083908 
	C430.748627,107.517357 434.104553,117.218407 436.935333,127.019463 
	C439.216278,134.916855 440.896667,143.076874 441.910431,151.236298 
	C447.604034,197.061447 444.047821,243.114563 444.482117,289.533691 
	C441.038757,290.337219 438.078278,290.945068 435.115601,290.955841 
	C413.466003,291.034332 391.816040,290.992981 370.166168,290.989502 
z"/>
<path fill="#000000" opacity="1.000000" stroke="none" 
	d="
M2412.000000,0.999980 
	C2461.642090,1.000000 2511.284180,1.000000 2560.963135,1.000000 
	C2560.963135,190.548279 2560.963135,380.096558 2560.963135,570.000000 
	C2505.646240,570.000000 2450.291992,570.000000 2394.333740,569.580688 
	C2395.072510,568.769592 2396.391602,568.187439 2397.761475,568.018555 
	C2404.287598,567.214050 2410.926270,567.005737 2417.343506,565.696960 
	C2434.978516,562.100464 2452.380615,557.766479 2468.886719,550.163391 
	C2488.240479,541.248535 2505.820557,530.041016 2520.409668,513.903931 
	C2532.535156,501.094818 2541.780273,486.758331 2547.911377,470.558289 
	C2550.434814,463.891205 2552.076416,456.890198 2554.442139,449.816528 
	C2560.948486,420.321716 2560.446045,391.122528 2553.872559,361.602356 
	C2553.602051,360.295288 2553.248291,359.386536 2552.990723,358.451233 
	C2546.661133,335.461060 2535.482910,315.449768 2516.911133,299.585754 
	C2505.513916,291.520081 2494.500000,283.363708 2482.900635,276.148499 
	C2476.044434,271.883698 2468.262451,269.107452 2460.632080,265.382141 
	C2457.623291,263.706421 2454.984863,262.024292 2452.116943,260.963440 
	C2438.723877,256.009552 2425.233887,251.317535 2411.842529,246.358902 
	C2397.295898,240.972458 2382.869629,235.258377 2368.300049,229.936020 
	C2350.890625,223.576309 2334.298584,215.681641 2319.091064,205.002975 
	C2301.606689,192.725967 2290.021729,176.439270 2288.184082,154.919769 
	C2285.982910,129.141479 2294.139160,107.059830 2314.447754,89.931664 
	C2331.327393,75.695328 2351.197021,69.901970 2372.580811,69.235863 
	C2383.327393,68.901108 2394.378906,69.976845 2404.896973,72.247772 
	C2438.820801,79.572266 2464.482422,98.250786 2479.938965,129.878220 
	C2482.494141,135.107208 2484.734131,140.490219 2487.230957,146.049332 
	C2489.109375,144.902954 2490.683350,143.872055 2492.320557,142.953598 
	C2511.850586,131.998810 2531.385498,121.052383 2550.933594,110.130333 
	C2553.125000,108.905899 2554.502686,107.668243 2553.076416,104.837959 
	C2550.183594,99.098221 2548.131104,92.848816 2544.662598,87.503532 
	C2537.746826,76.845116 2530.958008,65.904243 2522.581055,56.439022 
	C2508.195801,40.184715 2490.756348,27.709543 2470.718994,18.836716 
	C2452.562744,10.796877 2433.826416,5.271955 2414.123291,2.919267 
	C2413.350098,2.826934 2412.704834,1.664029 2412.000000,0.999980 
z"/>
<path fill="#A59E9D" opacity="1.000000" stroke="none" 
	d="
M2411.531250,0.999980 
	C2412.704834,1.664029 2413.350098,2.826934 2414.123291,2.919267 
	C2433.826416,5.271955 2452.562744,10.796877 2470.718994,18.836716 
	C2490.756348,27.709543 2508.195801,40.184715 2522.581055,56.439022 
	C2530.958008,65.904243 2537.746826,76.845116 2544.662598,87.503532 
	C2548.131104,92.848816 2550.183594,99.098221 2553.076416,104.837959 
	C2554.502686,107.668243 2553.125000,108.905899 2550.933594,110.130333 
	C2531.385498,121.052383 2511.850586,131.998810 2492.320557,142.953598 
	C2490.683350,143.872055 2489.109375,144.902954 2487.230957,146.049332 
	C2484.734131,140.490219 2482.494141,135.107208 2479.938965,129.878220 
	C2464.482422,98.250786 2438.820801,79.572266 2404.896973,72.247772 
	C2394.378906,69.976845 2383.327393,68.901108 2372.580811,69.235863 
	C2351.197021,69.901970 2331.327393,75.695328 2314.447754,89.931664 
	C2294.139160,107.059830 2285.982910,129.141479 2288.184082,154.919769 
	C2290.021729,176.439270 2301.606689,192.725967 2319.091064,205.002975 
	C2334.298584,215.681641 2350.890625,223.576309 2368.300049,229.936020 
	C2382.869629,235.258377 2397.295898,240.972458 2411.842529,246.358902 
	C2425.233887,251.317535 2438.723877,256.009552 2452.116943,260.963440 
	C2454.984863,262.024292 2457.623291,263.706421 2460.142578,265.452911 
	C2456.293213,266.202209 2452.668701,266.943481 2449.043457,266.948517 
	C2395.275635,267.023041 2341.508057,266.999207 2287.740234,267.001892 
	C2284.456055,267.002075 2281.171631,267.029572 2277.887451,267.044312 
	C2271.701416,262.971313 2265.351074,259.122833 2259.379639,254.755981 
	C2254.383789,251.102646 2249.352295,247.285278 2245.176514,242.764664 
	C2234.725586,231.450821 2225.008545,219.458878 2219.113037,205.019836 
	C2213.802734,192.013504 2210.975342,178.508408 2209.739014,164.349869 
	C2207.618408,140.057724 2211.561523,116.803818 2220.323730,94.561531 
	C2225.556152,81.279671 2233.058105,68.885086 2242.562988,57.699280 
	C2267.193115,28.712612 2298.749756,12.466036 2335.434082,4.969147 
	C2340.146729,4.006093 2344.816162,2.832787 2349.252930,1.378432 
	C2369.687500,1.000000 2390.375000,1.000000 2411.531250,0.999980 
z"/>
<path fill="#ED2124" opacity="1.000000" stroke="none" 
	d="
M1552.666626,1.000020 
	C1553.828613,2.332876 1554.439575,3.882658 1555.518555,4.966178 
	C1572.911865,22.429113 1590.364502,39.832748 1608.009155,57.455124 
	C1561.456299,104.331810 1515.043701,151.067307 1468.267822,197.595825 
	C1466.685059,195.841339 1465.605469,194.154480 1464.224609,192.767685 
	C1448.590820,177.066452 1432.875244,161.446289 1417.299927,145.687592 
	C1415.782471,144.152283 1415.053467,141.837769 1413.958496,139.884979 
	C1415.291260,138.418137 1416.565430,136.892654 1417.965332,135.492996 
	C1461.173828,92.294357 1504.396484,49.109966 1547.605103,5.911481 
	C1549.010620,4.506290 1550.291870,2.976907 1551.315552,1.252752 
	C1551.444458,1.000000 1551.888916,1.000000 1552.666626,1.000020 
z"/>
<path fill="#2F67B2" opacity="1.000000" stroke="none" 
	d="
M1090.666748,1.000012 
	C1092.019287,2.492532 1092.833740,4.189235 1094.087769,5.447960 
	C1138.267700,49.792088 1182.488770,94.095146 1226.548828,138.869400 
	C1211.982666,153.669998 1197.588989,168.022858 1183.148926,182.328842 
	C1179.133911,186.306473 1174.981445,190.145081 1170.891968,194.047470 
	C1170.136475,193.410217 1169.329468,192.824554 1168.633057,192.128281 
	C1124.792480,148.299530 1080.960571,104.462029 1037.130981,60.622223 
	C1036.427612,59.918755 1035.762695,59.176956 1034.380249,57.711365 
	C1052.778809,38.979702 1071.135254,20.290966 1089.245850,1.301116 
	C1089.444458,1.000000 1089.888916,1.000000 1090.666748,1.000012 
z"/>
<path fill="#867E7D" opacity="1.000000" stroke="none" 
	d="
M2520.108154,514.048218 
	C2505.820557,530.041016 2488.240479,541.248535 2468.886719,550.163391 
	C2452.380615,557.766479 2434.978516,562.100464 2417.343506,565.696960 
	C2410.926270,567.005737 2404.287598,567.214050 2397.761475,568.018555 
	C2396.391602,568.187439 2395.072510,568.769592 2393.864990,569.580688 
	C2377.979248,570.000000 2361.958252,570.000000 2345.468750,570.000000 
	C2344.208496,569.331909 2343.445557,568.118530 2342.621338,568.075500 
	C2322.462891,567.022644 2303.180908,561.910828 2284.444336,554.878174 
	C2267.180176,548.398132 2251.215088,539.346924 2237.020020,527.453857 
	C2232.209961,523.423706 2227.781006,518.938354 2223.425781,514.185486 
	C2225.470459,513.473328 2227.267578,513.030396 2229.064453,513.029724 
	C2323.972412,512.996277 2418.880371,512.993347 2513.788330,513.043823 
	C2515.895264,513.044922 2518.001465,513.698853 2520.108154,514.048218 
z"/>
<path fill="#857D7C" opacity="1.000000" stroke="none" 
	d="
M750.468628,570.000000 
	C749.211365,569.332520 748.454041,568.124146 747.629578,568.076416 
	C725.603333,566.800720 704.308777,561.842957 683.562683,554.701599 
	C661.665710,547.164001 641.249146,536.548584 622.441406,522.949219 
	C621.388306,522.187744 620.307678,521.464539 619.415527,520.141968 
	C621.059082,519.373596 622.526794,519.023804 623.994690,519.023438 
	C725.611755,518.997803 827.228882,518.994568 928.845947,519.046143 
	C930.580139,519.047058 932.314026,519.738159 934.048035,520.107178 
	C926.354736,525.580811 918.976135,531.578369 910.906494,536.425476 
	C890.300049,548.803040 868.132202,557.553528 844.504089,562.102051 
	C831.525635,564.600464 818.344727,566.043884 805.263123,568.016357 
	C804.058411,568.197998 802.912048,568.766968 801.869263,569.578003 
	C784.979126,570.000000 767.958191,570.000000 750.468628,570.000000 
z"/>
<path fill="#97908F" opacity="1.000000" stroke="none" 
	d="
M1.000000,311.468658 
	C20.395153,311.000397 39.790649,311.062958 59.185207,310.955658 
	C63.792225,310.930176 68.396095,310.335724 73.418129,309.992676 
	C73.888130,334.891907 73.958344,359.801483 73.988472,384.711090 
	C74.007149,400.157715 73.965004,415.604370 73.491394,431.439606 
	C70.746422,431.551880 68.460861,431.041992 66.173904,431.035583 
	C44.449406,430.974945 22.724669,430.999756 1.000000,431.000000 
	C1.000000,391.312439 1.000000,351.624878 1.000000,311.468658 
z"/>
<path fill="#8A8281" opacity="1.000000" stroke="none" 
	d="
M1.000000,431.468658 
	C22.724669,430.999756 44.449406,430.974945 66.173904,431.035583 
	C68.460861,431.041992 70.746422,431.551880 73.432495,431.903625 
	C73.880371,466.772491 73.928757,501.565918 73.975800,536.359375 
	C73.980270,539.666138 73.976402,542.972839 73.976402,546.977173 
	C49.743603,546.977173 25.840342,546.977173 1.468540,546.988586 
	C1.000000,508.645782 1.000000,470.291534 1.000000,431.468658 
z"/>
<path fill="#867E7D" opacity="1.000000" stroke="none" 
	d="
M1875.468628,570.000000 
	C1874.378174,569.336670 1873.833496,568.194702 1873.123291,568.080322 
	C1857.984131,565.641418 1842.651978,564.100586 1827.717041,560.770996 
	C1809.645386,556.742126 1792.659058,549.352661 1776.612671,540.031982 
	C1771.682983,537.168518 1767.024902,533.837463 1762.358154,530.119995 
	C1764.352417,529.013306 1766.230713,528.066101 1768.109863,528.064575 
	C1856.964966,527.991760 1945.820068,527.986450 2034.675049,528.088928 
	C2036.799805,528.091370 2038.922852,529.404236 2041.046753,530.105896 
	C2029.591064,539.610474 2016.479370,546.250183 2002.846436,551.905273 
	C1986.765137,558.575928 1969.924194,562.702515 1952.856934,565.814880 
	C1946.080322,567.050720 1939.118408,567.255676 1932.251465,568.025696 
	C1931.046509,568.160889 1929.894775,568.771545 1928.859253,569.581299 
	C1911.312378,570.000000 1893.624878,570.000000 1875.468628,570.000000 
z"/>
<path fill="#000000" opacity="1.000000" stroke="none" 
	d="
M233.531342,1.000002 
	C233.017487,1.665982 232.066238,2.858392 231.047745,2.918902 
	C215.989685,3.813532 201.366638,6.943121 186.865387,10.938033 
	C164.866730,16.998383 144.745605,27.201902 126.394798,40.353157 
	C114.978806,48.534515 104.678818,58.541199 94.984749,68.776878 
	C86.404266,77.836754 79.354240,88.346100 71.268890,98.674973 
	C71.268890,72.856880 71.268890,47.273174 71.268890,20.999107 
	C47.745232,20.999107 24.841272,20.999107 1.468657,20.999554 
	C1.000000,14.344879 1.000000,7.689759 1.000000,1.000000 
	C78.354225,1.000000 155.708450,1.000000 233.531342,1.000002 
z"/>
<path fill="#A59E9D" opacity="1.000000" stroke="none" 
	d="
M2049.165039,319.986572 
	C2049.445312,312.078552 2049.964844,304.170715 2049.969482,296.262512 
	C2050.024658,206.492813 2050.001221,116.723061 2049.998779,26.953320 
	C2049.998779,25.151379 2049.998779,23.349436 2049.998779,21.279919 
	C2074.744141,21.279919 2099.122070,21.279919 2123.962158,21.279919 
	C2123.962158,120.638412 2123.962158,219.848495 2123.440430,319.526276 
	C2098.334229,319.991516 2073.749756,319.989044 2049.165039,319.986572 
z"/>
<path fill="#A59E9D" opacity="1.000000" stroke="none" 
	d="
M1678.156738,312.990295 
	C1678.106323,311.660583 1678.012085,310.330872 1678.011963,309.001129 
	C1678.003296,214.543243 1678.001953,120.085358 1678.000122,25.627470 
	C1678.000122,24.310068 1678.000244,22.992666 1678.000244,21.337463 
	C1702.595093,21.337463 1726.980103,21.337463 1752.001099,21.337463 
	C1752.001099,23.218327 1752.001099,25.149515 1752.001099,27.080704 
	C1752.001099,109.044159 1751.959839,191.007660 1752.044189,272.971039 
	C1752.057251,285.687805 1752.644775,298.404022 1752.441895,311.557587 
	C1727.330322,312.326569 1702.743530,312.658447 1678.156738,312.990295 
z"/>
<path fill="#7BB47D" opacity="1.000000" stroke="none" 
	d="
M1453.959961,477.116730 
	C1452.736206,476.005005 1451.463867,474.941864 1450.295776,473.774506 
	C1412.359863,435.862732 1374.461670,397.913116 1336.445679,360.081848 
	C1333.856201,357.504913 1332.879150,354.979187 1332.922729,351.394165 
	C1333.104980,336.405884 1332.999634,321.414062 1332.999634,306.423553 
	C1332.999634,304.792236 1332.999512,303.160950 1332.999512,300.999054 
	C1341.528687,300.999054 1349.636475,300.998962 1357.744385,300.999084 
	C1366.905273,300.999207 1376.074219,300.788330 1385.221680,301.139496 
	C1387.693481,301.234344 1390.712646,302.415771 1392.446289,304.139008 
	C1431.308960,342.768158 1470.026978,381.542908 1508.701416,420.852173 
	C1507.726074,422.141296 1506.745239,422.791626 1505.928711,423.606659 
	C1489.587646,439.915222 1473.248291,456.225586 1456.973633,472.600220 
	C1455.721680,473.859955 1454.953125,475.599915 1453.959961,477.116730 
z"/>
<path fill="#8A8281" opacity="1.000000" stroke="none" 
	d="
M934.398193,520.053467 
	C932.314026,519.738159 930.580139,519.047058 928.845947,519.046143 
	C827.228882,518.994568 725.611755,518.997803 623.994690,519.023438 
	C622.526794,519.023804 621.059082,519.373596 619.269531,519.831665 
	C608.323669,510.593231 597.467163,501.326019 587.176636,491.468018 
	C582.285767,486.782806 578.473633,480.971558 574.447388,475.278961 
	C577.172791,474.591675 579.623108,474.043671 582.074524,474.038177 
	C613.754883,473.967194 645.435425,473.973480 677.115906,473.960236 
	C683.591858,477.702484 689.919189,481.736053 696.573120,485.129303 
	C712.851318,493.430359 729.971558,499.371429 748.270325,500.933044 
	C761.421204,502.055328 774.723633,503.588928 787.817139,502.745453 
	C816.069031,500.925507 842.870972,493.396637 866.830566,477.623566 
	C873.783813,473.046082 880.456116,468.041809 888.021240,463.106689 
	C897.543945,462.653503 906.301025,462.114380 915.061829,462.044189 
	C933.310364,461.898041 951.561401,462.081573 969.810242,461.956024 
	C976.247742,461.911743 982.681824,461.361115 989.117432,461.041687 
	C981.724548,470.548096 974.740234,480.412323 966.819580,489.456482 
	C959.453796,497.867157 951.157837,505.473602 943.126587,513.285156 
	C940.572876,515.769104 937.554199,517.775024 934.398193,520.053467 
z"/>
<path fill="#FEDC76" opacity="1.000000" stroke="none" 
	d="
M1138.884155,410.957947 
	C1140.344727,409.383942 1141.756470,407.761108 1143.273193,406.243195 
	C1177.180054,372.309174 1211.131348,338.419373 1244.948853,304.396606 
	C1247.534790,301.795013 1250.071533,300.892548 1253.622314,300.927185 
	C1270.243408,301.089172 1286.867065,300.999084 1304.000366,300.999084 
	C1304.000366,312.426239 1304.018433,323.529114 1303.994019,334.631927 
	C1303.977905,341.953857 1305.852539,350.068207 1303.293457,356.371277 
	C1300.811523,362.483948 1293.753540,366.742615 1288.693604,371.803894 
	C1268.084717,392.418335 1247.418091,412.975281 1226.882080,433.662048 
	C1216.362427,444.258942 1206.073975,455.085297 1195.082275,465.761780 
	C1179.669678,450.991516 1164.872070,436.251190 1150.030762,421.555115 
	C1146.388550,417.948578 1142.603516,414.486450 1138.884155,410.957947 
z"/>
<path fill="#8B8382" opacity="1.000000" stroke="none" 
	d="
M2520.409668,513.903931 
	C2518.001465,513.698853 2515.895264,513.044922 2513.788330,513.043823 
	C2418.880371,512.993347 2323.972412,512.996277 2229.064453,513.029724 
	C2227.267578,513.030396 2225.470459,513.473328 2223.284180,513.880249 
	C2211.613770,504.053864 2203.374023,491.738953 2196.334961,478.237762 
	C2198.799072,477.472900 2200.924805,477.033813 2203.051270,477.030579 
	C2232.635010,476.985443 2262.218750,477.024536 2291.802490,476.954559 
	C2294.238281,476.948792 2296.672607,476.301208 2299.107666,475.951843 
	C2311.594482,484.430634 2324.714844,491.733551 2339.538330,495.098846 
	C2349.065918,497.261841 2358.797852,498.602356 2368.490723,499.927216 
	C2374.029297,500.684265 2379.693359,501.150970 2385.266357,500.919617 
	C2407.092285,500.013336 2428.202637,496.142273 2446.942383,483.980865 
	C2459.756104,475.665100 2469.336426,464.457764 2476.460205,450.310730 
	C2502.761230,450.009186 2528.439941,450.025116 2554.118896,450.041046 
	C2552.076416,456.890198 2550.434814,463.891205 2547.911377,470.558289 
	C2541.780273,486.758331 2532.535156,501.094818 2520.409668,513.903931 
z"/>
<path fill="#999291" opacity="1.000000" stroke="none" 
	d="
M517.088013,308.425720 
	C519.778625,307.656586 522.391052,307.054016 525.005554,307.044617 
	C546.401978,306.967560 567.798950,307.031708 589.195435,306.958954 
	C591.644958,306.950623 594.092590,306.364166 596.981323,305.965393 
	C598.285095,313.449463 598.791260,321.076019 600.093689,328.564026 
	C602.180054,340.558777 604.014709,352.687012 607.385254,364.345551 
	C611.484192,378.523651 617.064819,392.273407 621.587585,406.596191 
	C595.783875,406.989258 570.396973,406.966095 545.010315,407.043091 
	C542.395203,407.051025 539.781921,407.656891 537.167786,407.985352 
	C532.778503,393.184875 527.756470,378.534576 524.196411,363.537262 
	C521.244873,351.103699 519.861084,338.282776 518.096558,325.589813 
	C517.329468,320.071960 517.348694,314.444733 517.088013,308.425720 
z"/>
<path fill="#9D9695" opacity="1.000000" stroke="none" 
	d="
M2517.048096,299.890686 
	C2535.482910,315.449768 2546.661133,335.461060 2552.990723,358.451233 
	C2553.248291,359.386536 2553.602051,360.295288 2553.473389,361.685974 
	C2550.745850,362.437073 2548.456543,362.957336 2546.166016,362.963531 
	C2519.407471,363.035889 2492.649170,363.030975 2465.890625,363.046448 
	C2461.015381,358.574615 2456.463135,353.674866 2451.207520,349.706940 
	C2431.119629,334.541077 2407.556885,326.309692 2384.547607,317.026123 
	C2372.504639,312.167114 2360.385742,307.495300 2348.417236,302.158875 
	C2352.451904,301.052551 2356.369385,300.076721 2360.289307,300.068329 
	C2409.016113,299.963837 2457.742920,300.002289 2506.469971,299.995331 
	C2509.996094,299.994843 2513.521973,299.927155 2517.048096,299.890686 
z"/>
<path fill="#8A8281" opacity="1.000000" stroke="none" 
	d="
M2041.395508,530.049072 
	C2038.922852,529.404236 2036.799805,528.091370 2034.675049,528.088928 
	C1945.820068,527.986450 1856.964966,527.991760 1768.109863,528.064575 
	C1766.230713,528.066101 1764.352417,529.013306 1762.211670,529.810791 
	C1751.311157,523.128479 1742.133789,514.541870 1734.300781,504.175507 
	C1736.554932,503.372437 1738.517822,503.025146 1740.481079,503.023712 
	C1783.360718,502.992645 1826.240234,503.000092 1869.119873,502.999939 
	C1875.201782,502.999908 1881.287964,503.120575 1887.362915,502.914612 
	C1888.924927,502.861603 1890.452271,501.778137 1891.995483,501.168030 
	C1893.067017,501.122375 1894.138672,501.076752 1895.746582,501.445984 
	C1899.338135,503.530457 1902.310669,504.158691 1904.995483,501.168060 
	C1905.749878,501.122742 1906.504272,501.077423 1907.781006,501.457581 
	C1910.341553,502.255371 1912.379517,502.950012 1914.418457,502.952881 
	C1966.317505,503.025299 2018.216797,503.025330 2070.115967,503.037964 
	C2064.279785,509.270599 2058.619385,515.682068 2052.535889,521.663147 
	C2049.318848,524.826172 2045.365234,527.240173 2041.395508,530.049072 
z"/>
<path fill="#948D8C" opacity="1.000000" stroke="none" 
	d="
M2466.031006,363.359650 
	C2492.649170,363.030975 2519.407471,363.035889 2546.166016,362.963531 
	C2548.456543,362.957336 2550.745850,362.437073 2553.434570,362.071960 
	C2560.446045,391.122528 2560.948486,420.321716 2554.442139,449.816528 
	C2528.439941,450.025116 2502.761230,450.009186 2476.624512,449.989746 
	C2480.968750,437.141907 2483.933105,423.909760 2482.926514,410.159607 
	C2481.683105,393.175720 2477.956543,376.930634 2466.031006,363.359650 
z"/>
<path fill="#8F8887" opacity="1.000000" stroke="none" 
	d="
M537.108154,408.247406 
	C539.781921,407.656891 542.395203,407.051025 545.010315,407.043091 
	C570.396973,406.966095 595.783875,406.989258 621.647522,406.976257 
	C627.435242,415.710480 632.411743,424.678314 638.130798,433.144501 
	C648.197327,448.046417 660.182251,461.229095 675.036194,471.600800 
	C675.706604,472.068909 676.223389,472.756897 676.963867,473.651367 
	C645.435425,473.973480 613.754883,473.967194 582.074524,474.038177 
	C579.623108,474.043671 577.172791,474.591675 574.302734,474.964294 
	C567.917053,466.306122 561.223511,457.969696 556.163391,448.737946 
	C549.445740,436.482300 544.002808,423.527954 537.890747,410.293640 
	C537.622620,409.438660 537.421448,409.212158 537.165833,409.033997 
	C537.126709,408.859161 537.087646,408.684296 537.108154,408.247406 
z"/>
<path fill="#A29B9A" opacity="1.000000" stroke="none" 
	d="
M2516.911133,299.585785 
	C2513.521973,299.927155 2509.996094,299.994843 2506.469971,299.995331 
	C2457.742920,300.002289 2409.016113,299.963837 2360.289307,300.068329 
	C2356.369385,300.076721 2352.451904,301.052551 2348.242188,301.842194 
	C2323.643799,292.760559 2300.106445,281.854645 2278.034180,267.363220 
	C2281.171631,267.029572 2284.456055,267.002075 2287.740234,267.001892 
	C2341.508057,266.999207 2395.275635,267.023041 2449.043457,266.948517 
	C2452.668701,266.943481 2456.293213,266.202209 2460.407227,265.732605 
	C2468.262451,269.107452 2476.044434,271.883698 2482.900635,276.148499 
	C2494.500000,283.363708 2505.513916,291.520081 2516.911133,299.585785 
z"/>
<path fill="#9A9392" opacity="1.000000" stroke="none" 
	d="
M2049.088867,320.447754 
	C2073.749756,319.989044 2098.334229,319.991516 2123.376953,319.990234 
	C2123.250488,332.641327 2123.072510,345.331604 2121.975098,357.941833 
	C2120.698242,372.617157 2118.615967,387.222382 2116.218750,401.766998 
	C2112.493896,401.116974 2109.437012,400.095703 2106.373047,400.073792 
	C2086.143799,399.928864 2065.912598,400.031494 2045.682739,399.953156 
	C2043.416626,399.944366 2041.152832,399.306702 2038.887939,398.960632 
	C2040.719849,389.385620 2042.764404,379.845001 2044.321899,370.225586 
	C2045.808594,361.044373 2047.012817,351.803040 2047.918457,342.546783 
	C2048.620850,335.367218 2048.672119,328.123932 2049.088867,320.447754 
z"/>
<path fill="#918A89" opacity="1.000000" stroke="none" 
	d="
M989.413330,460.868469 
	C982.681824,461.361115 976.247742,461.911743 969.810242,461.956024 
	C951.561401,462.081573 933.310364,461.898041 915.061829,462.044189 
	C906.301025,462.114380 897.543945,462.653503 888.333008,462.970520 
	C892.872681,457.851257 897.883789,452.760437 902.852539,447.628540 
	C915.575256,434.488129 926.128540,419.737732 934.995728,403.783569 
	C939.826233,395.092194 944.353210,386.232208 949.246399,377.016327 
	C960.084534,382.803833 970.863831,388.483246 981.568970,394.299408 
	C991.025574,399.437317 1000.353699,404.812408 1009.825012,409.922455 
	C1016.778625,413.674133 1017.821411,412.238190 1013.368530,420.101959 
	C1005.651917,433.729248 997.612915,447.173950 989.413330,460.868469 
z"/>
<path fill="#9D9695" opacity="1.000000" stroke="none" 
	d="
M1678.082520,313.431213 
	C1702.743530,312.658447 1727.330322,312.326569 1752.375000,311.992004 
	C1753.222412,320.907135 1753.078735,329.887543 1754.117432,338.729095 
	C1756.019775,354.923431 1758.620117,371.035736 1760.422852,387.587708 
	C1734.565308,388.014648 1709.214355,388.036133 1683.863281,388.057648 
	C1682.911987,382.052338 1681.486084,376.077209 1681.102295,370.035858 
	C1680.120605,354.580841 1679.605225,339.096252 1678.880859,323.624573 
	C1678.867310,323.333893 1678.573730,323.056335 1678.403687,322.260834 
	C1678.525146,321.446350 1678.437012,321.203827 1678.132080,321.021393 
	C1678.090820,318.638306 1678.049561,316.255219 1678.082520,313.431213 
z"/>
<path fill="#948C8B" opacity="1.000000" stroke="none" 
	d="
M1683.913818,388.486633 
	C1709.214355,388.036133 1734.565308,388.014648 1760.374023,387.989960 
	C1766.011597,412.154358 1774.117432,435.106445 1788.567139,455.808746 
	C1786.209473,456.528320 1784.089111,456.964508 1781.967651,456.969543 
	C1755.941406,457.031403 1729.915161,457.030090 1703.888794,457.045135 
	C1698.926392,443.089508 1693.513550,429.272186 1689.171021,415.126312 
	C1686.570312,406.654999 1685.643555,397.669830 1683.913818,388.486633 
z"/>
<path fill="#3C6FB6" opacity="1.000000" stroke="none" 
	d="
M1171.041260,194.348099 
	C1174.981445,190.145081 1179.133911,186.306473 1183.148926,182.328842 
	C1197.588989,168.022858 1211.982666,153.669998 1226.681641,139.174606 
	C1242.911133,154.804672 1258.852783,170.594955 1274.854248,187.025360 
	C1273.682739,189.203629 1272.582153,190.871933 1271.199951,192.259933 
	C1256.061401,207.462372 1240.852295,222.594574 1225.743042,237.825867 
	C1223.903931,239.679901 1222.536987,242.002502 1220.951172,244.107910 
	C1204.364258,227.621506 1187.777466,211.135117 1171.041260,194.348099 
z"/>
<path fill="#8C8483" opacity="1.000000" stroke="none" 
	d="
M1703.940308,457.416077 
	C1729.915161,457.030090 1755.941406,457.031403 1781.967651,456.969543 
	C1784.089111,456.964508 1786.209473,456.528320 1788.720947,456.124298 
	C1800.051758,469.293823 1812.976196,480.117340 1828.759521,487.345581 
	C1840.413208,492.682587 1852.611816,496.182404 1865.275635,497.967651 
	C1873.873169,499.179688 1882.522705,500.022461 1891.572266,501.099243 
	C1890.452271,501.778137 1888.924927,502.861603 1887.362915,502.914612 
	C1881.287964,503.120575 1875.201782,502.999908 1869.119873,502.999939 
	C1826.240234,503.000092 1783.360718,502.992645 1740.481079,503.023712 
	C1738.517822,503.025146 1736.554932,503.372437 1734.269775,503.829529 
	C1726.658447,494.187439 1719.078979,484.470184 1712.202759,474.278473 
	C1708.797974,469.231903 1706.687744,463.311890 1703.940308,457.416077 
z"/>
<path fill="#4976BA" opacity="1.000000" stroke="none" 
	d="
M1221.094116,244.406372 
	C1222.536987,242.002502 1223.903931,239.679901 1225.743042,237.825867 
	C1240.852295,222.594574 1256.061401,207.462372 1271.199951,192.259933 
	C1272.582153,190.871933 1273.682739,189.203629 1274.995361,187.330826 
	C1283.775391,195.586395 1292.505981,204.144791 1301.136353,212.803268 
	C1302.341797,214.012650 1303.856934,215.705185 1303.872437,217.188156 
	C1304.060425,235.273422 1303.994507,253.361328 1303.994507,272.012177 
	C1298.519531,272.012177 1293.418823,272.012848 1288.318237,272.012024 
	C1276.512573,272.010071 1264.702515,272.172668 1252.904541,271.870819 
	C1250.434570,271.807648 1247.441528,270.630402 1245.658813,268.942627 
	C1237.332397,261.059692 1229.345337,252.818176 1221.094116,244.406372 
z"/>
<path fill="#948C8B" opacity="1.000000" stroke="none" 
	d="
M2038.563721,399.158569 
	C2041.152832,399.306702 2043.416626,399.944366 2045.682739,399.953156 
	C2065.912598,400.031494 2086.143799,399.928864 2106.373047,400.073792 
	C2109.437012,400.095703 2112.493896,401.116974 2115.835449,401.955444 
	C2113.010010,419.173950 2108.526367,435.693604 2100.537598,451.664917 
	C2071.581055,451.989471 2043.244507,451.983337 2014.907959,451.977234 
	C2025.280396,437.386597 2031.962036,421.095184 2036.984375,404.041443 
	C2037.441040,402.491028 2037.822876,400.918610 2038.563721,399.158569 
z"/>
<path fill="#8E8685" opacity="1.000000" stroke="none" 
	d="
M2298.956299,475.642242 
	C2296.672607,476.301208 2294.238281,476.948792 2291.802490,476.954559 
	C2262.218750,477.024536 2232.635010,476.985443 2203.051270,477.030579 
	C2200.924805,477.033813 2198.799072,477.472900 2196.283203,477.879150 
	C2192.167480,470.479767 2188.335449,462.958832 2184.840820,455.284424 
	C2184.369629,454.249756 2185.141846,451.675049 2186.102539,451.108093 
	C2201.156982,442.222626 2216.346191,433.565613 2231.484619,424.821808 
	C2238.699219,420.654541 2245.872559,416.415253 2253.444336,411.986572 
	C2264.014648,436.609528 2276.762939,459.341125 2298.956299,475.642242 
z"/>
<path fill="#FEDA67" opacity="1.000000" stroke="none" 
	d="
M1138.575195,411.080109 
	C1142.603516,414.486450 1146.388550,417.948578 1150.030762,421.555115 
	C1164.872070,436.251190 1179.669678,450.991516 1194.772705,465.890564 
	C1183.595703,477.657990 1172.129395,489.250397 1159.993164,500.924133 
	C1157.805664,500.093475 1156.029907,499.441650 1154.809570,498.230255 
	C1138.665283,482.203491 1122.583374,466.113678 1106.547119,449.978790 
	C1105.436035,448.860931 1104.808594,447.262177 1103.956299,445.887085 
	C1115.392944,434.325470 1126.829590,422.763855 1138.575195,411.080109 
z"/>
<path fill="#FED857" opacity="1.000000" stroke="none" 
	d="
M1103.644043,446.016785 
	C1104.808594,447.262177 1105.436035,448.860931 1106.547119,449.978790 
	C1122.583374,466.113678 1138.665283,482.203491 1154.809570,498.230255 
	C1156.029907,499.441650 1157.805664,500.093475 1159.683350,501.058899 
	C1148.269409,513.007080 1136.495361,524.901794 1124.114990,536.760681 
	C1108.688232,521.999023 1093.883911,507.257080 1079.036133,492.558929 
	C1075.392212,488.951843 1071.606812,485.487793 1067.886475,481.958008 
	C1079.701660,470.020844 1091.516724,458.083649 1103.644043,446.016785 
z"/>
<path fill="#EE2E2C" opacity="1.000000" stroke="none" 
	d="
M1413.653076,140.028503 
	C1415.053467,141.837769 1415.782471,144.152283 1417.299927,145.687592 
	C1432.875244,161.446289 1448.590820,177.066452 1464.224609,192.767685 
	C1465.605469,194.154480 1466.685059,195.841339 1467.960693,197.734085 
	C1457.248291,208.976822 1446.480103,219.874329 1435.061890,230.845795 
	C1433.455078,230.291916 1432.356323,229.806549 1431.562256,229.015213 
	C1414.733398,212.242157 1397.925415,195.448029 1381.171509,178.600067 
	C1380.176758,177.599762 1379.671875,176.112274 1378.938965,174.851471 
	C1390.408691,163.291672 1401.878296,151.731857 1413.653076,140.028503 
z"/>
<path fill="#5CAD6E" opacity="1.000000" stroke="none" 
	d="
M1517.959229,542.114563 
	C1511.551147,535.490662 1505.170044,528.840515 1498.725830,522.252014 
	C1494.254883,517.680786 1489.697266,513.194458 1485.349487,508.214691 
	C1486.990723,506.695587 1488.633911,505.805939 1489.904541,504.541901 
	C1505.459106,489.068695 1520.992798,473.574036 1536.421143,457.975403 
	C1537.976929,456.402405 1538.810303,454.114594 1539.978882,452.158478 
	C1546.997437,458.967255 1554.042603,465.748901 1561.025269,472.594391 
	C1565.665161,477.143127 1570.215698,481.783020 1574.584961,486.698975 
	C1572.605713,488.147552 1570.584961,489.013580 1569.130859,490.452362 
	C1555.787964,503.655090 1542.522095,516.936157 1529.283081,530.243408 
	C1525.427002,534.119385 1521.729370,538.153137 1517.959229,542.114563 
z"/>
<path fill="#6CB176" opacity="1.000000" stroke="none" 
	d="
M1539.668701,452.005493 
	C1538.810303,454.114594 1537.976929,456.402405 1536.421143,457.975403 
	C1520.992798,473.574036 1505.459106,489.068695 1489.904541,504.541901 
	C1488.633911,505.805939 1486.990723,506.695587 1485.207031,507.905914 
	C1474.670166,497.942902 1464.446777,487.833160 1454.091797,477.420044 
	C1454.953125,475.599915 1455.721680,473.859955 1456.973633,472.600220 
	C1473.248291,456.225586 1489.587646,439.915222 1505.928711,423.606659 
	C1506.745239,422.791626 1507.726074,422.141296 1508.842651,421.152222 
	C1519.156006,431.210907 1529.257202,441.531677 1539.668701,452.005493 
z"/>
<path fill="#EF3B35" opacity="1.000000" stroke="none" 
	d="
M1378.635010,174.998383 
	C1379.671875,176.112274 1380.176758,177.599762 1381.171509,178.600067 
	C1397.925415,195.448029 1414.733398,212.242157 1431.562256,229.015213 
	C1432.356323,229.806549 1433.455078,230.291916 1434.758545,230.979156 
	C1424.644043,241.617599 1414.182983,252.196671 1403.071655,262.849121 
	C1401.463257,262.295380 1400.362305,261.811584 1399.568115,261.020081 
	C1382.730103,244.238266 1365.912720,227.435547 1349.151001,210.577499 
	C1348.157837,209.578629 1347.666626,208.080704 1346.941895,206.814972 
	C1357.404907,196.258392 1367.868042,185.701843 1378.635010,174.998383 
z"/>
<path fill="#FED647" opacity="1.000000" stroke="none" 
	d="
M1067.578125,482.081146 
	C1071.606812,485.487793 1075.392212,488.951843 1079.036133,492.558929 
	C1093.883911,507.257080 1108.688232,521.999023 1123.807129,536.886780 
	C1113.558350,547.144531 1103.011230,557.240356 1091.902588,567.873596 
	C1086.865112,562.690063 1081.263428,556.815430 1075.541138,551.060730 
	C1064.036011,539.490295 1052.558594,527.889221 1040.858032,516.518555 
	C1037.805420,513.551941 1037.434570,511.757294 1040.730469,508.621674 
	C1049.771362,500.020416 1058.448486,491.036652 1067.578125,482.081146 
z"/>
<path fill="#4EAA67" opacity="1.000000" stroke="none" 
	d="
M1518.095459,542.415527 
	C1521.729370,538.153137 1525.427002,534.119385 1529.283081,530.243408 
	C1542.522095,516.936157 1555.787964,503.655090 1569.130859,490.452362 
	C1570.584961,489.013580 1572.605713,488.147552 1574.733887,487.002197 
	C1583.171875,495.479004 1591.239624,503.969513 1598.968262,512.103149 
	C1580.964355,530.101318 1562.382324,548.677368 1543.169800,567.883728 
	C1535.248535,559.889648 1526.740234,551.303101 1518.095459,542.415527 
z"/>
<path fill="#8C8483" opacity="1.000000" stroke="none" 
	d="
M2070.419434,502.895813 
	C2018.216797,503.025330 1966.317505,503.025299 1914.418457,502.952881 
	C1912.379517,502.950012 1910.341553,502.255371 1908.154175,501.525513 
	C1916.760254,500.132538 1925.518799,499.125122 1934.269775,498.055878 
	C1953.836670,495.665131 1971.895874,489.153717 1988.893555,478.332886 
	C1991.841064,478.984192 1994.208252,479.925354 1996.578857,479.934204 
	C2026.759644,480.046844 2056.940918,480.025726 2087.122070,480.038605 
	C2081.655518,487.610260 2076.189209,495.181915 2070.419434,502.895813 
z"/>
<path fill="#8E8685" opacity="1.000000" stroke="none" 
	d="
M2087.422607,479.862366 
	C2056.940918,480.025726 2026.759644,480.046844 1996.578857,479.934204 
	C1994.208252,479.925354 1991.841064,478.984192 1989.211060,478.183838 
	C1998.589966,470.538544 2007.449463,462.411743 2014.612915,452.143738 
	C2043.244507,451.983337 2071.581055,451.989471 2100.375244,451.993286 
	C2097.404297,459.321594 2093.984131,466.656219 2090.541260,473.979919 
	C2089.638916,475.899414 2088.664551,477.784943 2087.422607,479.862366 
z"/>
<path fill="#F0463B" opacity="1.000000" stroke="none" 
	d="
M1346.636475,206.966156 
	C1347.666626,208.080704 1348.157837,209.578629 1349.151001,210.577499 
	C1365.912720,227.435547 1382.730103,244.238266 1399.568115,261.020081 
	C1400.362305,261.811584 1401.463257,262.295380 1402.768311,262.982117 
	C1403.045044,263.192139 1402.995728,263.357452 1402.901245,263.490723 
	C1398.132080,270.214630 1392.003662,272.691376 1383.468750,272.225677 
	C1368.585938,271.413605 1353.626953,271.999573 1337.994751,271.999573 
	C1337.994751,269.992157 1337.994507,268.241241 1337.994751,266.490326 
	C1337.996826,252.043091 1338.295288,237.586792 1337.853027,223.153168 
	C1337.679688,217.502090 1339.001709,213.241211 1343.500488,209.907791 
	C1344.554565,209.126846 1345.393311,208.055206 1346.636475,206.966156 
z"/>
<path fill="#8C8483" opacity="1.000000" stroke="none" 
	d="
M1904.549805,501.102386 
	C1902.310669,504.158691 1899.338135,503.530457 1896.144043,501.514465 
	C1898.704712,501.124268 1901.404419,501.080475 1904.549805,501.102386 
z"/>
<path fill="#A59E9D" opacity="1.000000" stroke="none" 
	d="
M1678.078247,321.260498 
	C1678.437012,321.203827 1678.525146,321.446350 1678.293213,321.855042 
	C1678.189819,321.961060 1678.024414,321.499603 1678.078247,321.260498 
z"/>
<path fill="#918A89" opacity="1.000000" stroke="none" 
	d="
M370.165619,468.983154 
	C370.114685,437.959747 370.063721,406.936310 370.499817,375.428955 
	C373.933777,374.630035 376.879517,374.054993 379.827728,374.042236 
	C398.887268,373.959778 417.947571,374.038544 437.007111,373.954956 
	C439.617371,373.943481 442.225006,373.323853 444.833862,372.985748 
	C444.873657,404.342041 444.913452,435.698364 444.471283,467.524292 
	C440.861115,468.329254 437.733917,468.943329 434.604523,468.954956 
	C413.125153,469.034912 391.645294,468.988739 370.165619,468.983154 
z"/>
<path fill="#9D9695" opacity="1.000000" stroke="none" 
	d="
M444.895020,372.521545 
	C442.225006,373.323853 439.617371,373.943481 437.007111,373.954956 
	C417.947571,374.038544 398.887268,373.959778 379.827728,374.042236 
	C376.879517,374.054993 373.933777,374.630035 370.576538,374.964905 
	C370.116089,347.295715 370.066040,319.606689 370.091064,291.453552 
	C391.816040,290.992981 413.466003,291.034332 435.115601,290.955841 
	C438.078278,290.945068 441.038757,290.337219 444.416931,289.997681 
	C444.874481,317.345428 444.915344,344.701385 444.895020,372.521545 
z"/>
<path fill="#867E7D" opacity="1.000000" stroke="none" 
	d="
M370.090546,469.447662 
	C391.645294,468.988739 413.125153,469.034912 434.604523,468.954956 
	C437.733917,468.943329 440.861115,468.329254 444.411560,467.988464 
	C444.833832,494.078583 444.833832,520.174194 444.833832,546.628113 
	C420.002350,546.628113 395.323853,546.628113 370.015472,546.628113 
	C370.015472,521.028198 370.015472,495.470184 370.090546,469.447662 
z"/>
<path fill="#999291" opacity="1.000000" stroke="none" 
	d="
M537.156067,409.290894 
	C537.421448,409.212158 537.622620,409.438660 537.868958,409.919678 
	C537.694397,409.933197 537.420349,409.740509 537.156067,409.290894 
z"/>
<path fill="#000000" opacity="1.000000" stroke="none" 
	d="
M654.763733,112.737648 
	C668.128174,100.688332 682.722534,91.102104 699.326050,85.169685 
	C710.743469,81.090233 722.470459,77.348938 734.376221,75.296028 
	C749.761169,72.643211 765.378479,72.430916 781.132507,73.748917 
	C798.494141,75.201431 815.350708,78.354225 831.567932,84.368141 
	C854.528992,92.882896 874.749207,105.755692 889.803955,125.459824 
	C896.416687,134.114700 902.996277,143.093582 907.710571,152.835266 
	C916.344543,170.676498 922.329224,189.534332 924.023438,209.520981 
	C924.390442,213.850281 925.402466,218.124908 926.168640,222.732803 
	C817.681396,222.732803 709.582275,222.732803 601.426270,222.732803 
	C606.358459,179.926849 622.344360,142.547302 654.763733,112.737648 
z"/>
</svg>